<mxfile host="app.diagrams.net" agent="Mozilla/5.0 (Macintosh; Intel Mac OS X 10.15; rv:134.0) Gecko/20100101 Firefox/134.0" version="26.0.12" pages="2">
  <diagram name="Page-1" id="C6y82SUI9EZybyrPN-1k">
    <mxGraphModel dx="2179" dy="601" grid="1" gridSize="10" guides="1" tooltips="1" connect="1" arrows="1" fold="1" page="1" pageScale="1" pageWidth="850" pageHeight="1100" math="0" shadow="0">
      <root>
        <mxCell id="0" />
        <mxCell id="1" parent="0" />
        <mxCell id="KX-Zyq8FnDFm3sMZBiW9-1" value="Anywhere" style="sketch=0;outlineConnect=0;gradientColor=none;html=1;whiteSpace=wrap;fontSize=12;fontStyle=0;shape=mxgraph.aws4.group;grIcon=mxgraph.aws4.group_on_premise;strokeColor=#AAB7B8;fillColor=none;verticalAlign=top;align=left;spacingLeft=30;fontColor=#AAB7B8;dashed=0;" parent="1" vertex="1">
          <mxGeometry x="-425" y="546" width="410" height="320" as="geometry" />
        </mxCell>
        <mxCell id="ur1-Jj-tgkY6aSvv_yTd-15" value="" style="rounded=0;whiteSpace=wrap;html=1;fillColor=#ffe6cc;strokeColor=none;opacity=40;" parent="1" vertex="1">
          <mxGeometry x="-273.5" y="684.5" width="160" height="125.5" as="geometry" />
        </mxCell>
        <mxCell id="kGXVVBS_KSktztfMy0yq-3" value="AWS Cloud" style="sketch=0;outlineConnect=0;gradientColor=none;html=1;whiteSpace=wrap;fontSize=12;fontStyle=0;shape=mxgraph.aws4.group;grIcon=mxgraph.aws4.group_aws_cloud;strokeColor=#AAB7B8;fillColor=none;verticalAlign=top;align=left;spacingLeft=30;fontColor=#AAB7B8;dashed=0;" parent="1" vertex="1">
          <mxGeometry x="110" y="140" width="1050" height="730" as="geometry" />
        </mxCell>
        <mxCell id="EfZzKLjjXhhsiKxFBeHn-30" value="" style="rounded=0;whiteSpace=wrap;html=1;fillColor=#ffe6cc;strokeColor=none;labelPosition=center;verticalLabelPosition=bottom;align=center;verticalAlign=top;opacity=40;" parent="1" vertex="1">
          <mxGeometry x="890" y="190" width="240" height="610" as="geometry" />
        </mxCell>
        <mxCell id="kGXVVBS_KSktztfMy0yq-47" value="" style="rounded=0;whiteSpace=wrap;html=1;" parent="1" vertex="1">
          <mxGeometry x="130" y="190" width="260" height="610" as="geometry" />
        </mxCell>
        <mxCell id="kGXVVBS_KSktztfMy0yq-19" value="Field" style="sketch=0;outlineConnect=0;gradientColor=none;html=1;whiteSpace=wrap;fontSize=12;fontStyle=0;shape=mxgraph.aws4.group;grIcon=mxgraph.aws4.group_on_premise;strokeColor=#AAB7B8;fillColor=none;verticalAlign=top;align=left;spacingLeft=30;fontColor=#AAB7B8;dashed=0;" parent="1" vertex="1">
          <mxGeometry x="-425" y="140" width="410" height="320" as="geometry" />
        </mxCell>
        <mxCell id="kGXVVBS_KSktztfMy0yq-15" value="" style="rounded=0;whiteSpace=wrap;html=1;" parent="1" vertex="1">
          <mxGeometry x="475" y="190" width="375" height="498" as="geometry" />
        </mxCell>
        <mxCell id="kGXVVBS_KSktztfMy0yq-12" value="sends data" style="edgeStyle=orthogonalEdgeStyle;rounded=0;orthogonalLoop=1;jettySize=auto;html=1;" parent="1" source="EfZzKLjjXhhsiKxFBeHn-36" target="EfZzKLjjXhhsiKxFBeHn-4" edge="1">
          <mxGeometry relative="1" as="geometry">
            <mxPoint x="320" y="247" as="targetPoint" />
            <Array as="points">
              <mxPoint x="430" y="380" />
              <mxPoint x="430" y="518" />
            </Array>
          </mxGeometry>
        </mxCell>
        <mxCell id="kGXVVBS_KSktztfMy0yq-4" value="AWS IoT Core" style="sketch=0;points=[[0,0,0],[0.25,0,0],[0.5,0,0],[0.75,0,0],[1,0,0],[0,1,0],[0.25,1,0],[0.5,1,0],[0.75,1,0],[1,1,0],[0,0.25,0],[0,0.5,0],[0,0.75,0],[1,0.25,0],[1,0.5,0],[1,0.75,0]];outlineConnect=0;fontColor=#232F3E;fillColor=#7AA116;strokeColor=#ffffff;dashed=0;verticalLabelPosition=bottom;verticalAlign=top;align=center;html=1;fontSize=12;fontStyle=0;aspect=fixed;shape=mxgraph.aws4.resourceIcon;resIcon=mxgraph.aws4.iot_core;" parent="1" vertex="1">
          <mxGeometry x="222" y="208" width="78" height="78" as="geometry" />
        </mxCell>
        <mxCell id="kGXVVBS_KSktztfMy0yq-24" value="certificate" style="sketch=0;outlineConnect=0;fontColor=#232F3E;gradientColor=none;fillColor=#7AA116;strokeColor=none;dashed=0;verticalLabelPosition=middle;verticalAlign=middle;align=left;html=1;fontSize=12;fontStyle=0;aspect=fixed;pointerEvents=1;shape=mxgraph.aws4.certificate_manager;labelPosition=right;" parent="1" vertex="1">
          <mxGeometry x="172.5" y="560" width="59" height="78" as="geometry" />
        </mxCell>
        <mxCell id="kGXVVBS_KSktztfMy0yq-25" value="" style="sketch=0;outlineConnect=0;fontColor=#232F3E;gradientColor=none;fillColor=#7AA116;strokeColor=none;dashed=0;verticalLabelPosition=bottom;verticalAlign=top;align=center;html=1;fontSize=12;fontStyle=0;aspect=fixed;pointerEvents=1;shape=mxgraph.aws4.mqtt_protocol;" parent="1" vertex="1">
          <mxGeometry x="20" y="319.6" width="40" height="40" as="geometry" />
        </mxCell>
        <mxCell id="kGXVVBS_KSktztfMy0yq-31" value="represents IO-Link master" style="edgeStyle=orthogonalEdgeStyle;rounded=0;orthogonalLoop=1;jettySize=auto;html=1;" parent="1" edge="1">
          <mxGeometry x="-0.2933" relative="1" as="geometry">
            <mxPoint x="-152" y="400" as="targetPoint" />
            <Array as="points">
              <mxPoint x="30" y="481" />
              <mxPoint x="30" y="480" />
              <mxPoint x="-152" y="480" />
            </Array>
            <mxPoint x="163" y="481" as="sourcePoint" />
            <mxPoint as="offset" />
          </mxGeometry>
        </mxCell>
        <mxCell id="kGXVVBS_KSktztfMy0yq-33" value="has attached" style="edgeStyle=orthogonalEdgeStyle;rounded=0;orthogonalLoop=1;jettySize=auto;html=1;" parent="1" source="kGXVVBS_KSktztfMy0yq-26" target="kGXVVBS_KSktztfMy0yq-24" edge="1">
          <mxGeometry relative="1" as="geometry" />
        </mxCell>
        <mxCell id="kGXVVBS_KSktztfMy0yq-26" value="thing" style="sketch=0;outlineConnect=0;fontColor=#232F3E;gradientColor=none;fillColor=#7AA116;strokeColor=none;dashed=0;verticalLabelPosition=middle;verticalAlign=middle;align=left;html=1;fontSize=12;fontStyle=0;aspect=fixed;pointerEvents=1;shape=mxgraph.aws4.generic;labelPosition=right;" parent="1" vertex="1">
          <mxGeometry x="163" y="440" width="78" height="78" as="geometry" />
        </mxCell>
        <mxCell id="kGXVVBS_KSktztfMy0yq-37" value="provides permissions" style="edgeStyle=orthogonalEdgeStyle;rounded=0;orthogonalLoop=1;jettySize=auto;html=1;" parent="1" source="kGXVVBS_KSktztfMy0yq-36" target="kGXVVBS_KSktztfMy0yq-24" edge="1">
          <mxGeometry relative="1" as="geometry" />
        </mxCell>
        <mxCell id="kGXVVBS_KSktztfMy0yq-36" value="IoT policy" style="sketch=0;outlineConnect=0;fontColor=#232F3E;gradientColor=none;fillColor=#7AA116;strokeColor=none;dashed=0;verticalLabelPosition=middle;verticalAlign=middle;align=left;html=1;fontSize=12;fontStyle=0;aspect=fixed;pointerEvents=1;shape=mxgraph.aws4.policy;labelPosition=right;" parent="1" vertex="1">
          <mxGeometry x="163" y="690" width="78" height="67" as="geometry" />
        </mxCell>
        <mxCell id="kGXVVBS_KSktztfMy0yq-46" value="reads data" style="edgeStyle=orthogonalEdgeStyle;rounded=0;orthogonalLoop=1;jettySize=auto;html=1;" parent="1" source="kGXVVBS_KSktztfMy0yq-41" edge="1">
          <mxGeometry relative="1" as="geometry">
            <mxPoint x="-322" y="367" as="targetPoint" />
          </mxGeometry>
        </mxCell>
        <mxCell id="EfZzKLjjXhhsiKxFBeHn-38" value="sends data" style="edgeStyle=orthogonalEdgeStyle;rounded=0;orthogonalLoop=1;jettySize=auto;html=1;" parent="1" source="kGXVVBS_KSktztfMy0yq-41" target="EfZzKLjjXhhsiKxFBeHn-37" edge="1">
          <mxGeometry relative="1" as="geometry">
            <mxPoint as="offset" />
          </mxGeometry>
        </mxCell>
        <mxCell id="kGXVVBS_KSktztfMy0yq-41" value="IO-Link master" style="rounded=1;whiteSpace=wrap;html=1;align=left;verticalAlign=top;" parent="1" vertex="1">
          <mxGeometry x="-212.5" y="337" width="120" height="60" as="geometry" />
        </mxCell>
        <mxCell id="kGXVVBS_KSktztfMy0yq-34" value="" style="sketch=0;outlineConnect=0;fontColor=#232F3E;gradientColor=none;fillColor=#7AA116;strokeColor=none;dashed=0;verticalLabelPosition=bottom;verticalAlign=top;align=center;html=1;fontSize=12;fontStyle=0;aspect=fixed;pointerEvents=1;shape=mxgraph.aws4.certificate_manager;" parent="1" vertex="1">
          <mxGeometry x="-130" y="349.5" width="28.74" height="38" as="geometry" />
        </mxCell>
        <mxCell id="EfZzKLjjXhhsiKxFBeHn-1" value="IO-Link sensor" style="sketch=0;outlineConnect=0;fontColor=#232F3E;gradientColor=none;fillColor=#7AA116;strokeColor=none;dashed=0;verticalLabelPosition=bottom;verticalAlign=top;align=center;html=1;fontSize=12;fontStyle=0;aspect=fixed;pointerEvents=1;shape=mxgraph.aws4.sensor;" parent="1" vertex="1">
          <mxGeometry x="-390" y="321" width="70" height="78" as="geometry" />
        </mxCell>
        <mxCell id="EfZzKLjjXhhsiKxFBeHn-7" value="instanciates to" style="edgeStyle=orthogonalEdgeStyle;rounded=0;orthogonalLoop=1;jettySize=auto;html=1;" parent="1" source="EfZzKLjjXhhsiKxFBeHn-2" target="EfZzKLjjXhhsiKxFBeHn-4" edge="1">
          <mxGeometry relative="1" as="geometry" />
        </mxCell>
        <mxCell id="EfZzKLjjXhhsiKxFBeHn-2" value="model" style="sketch=0;outlineConnect=0;fontColor=#232F3E;gradientColor=none;fillColor=#7AA116;strokeColor=none;dashed=0;verticalLabelPosition=middle;verticalAlign=middle;align=left;html=1;fontSize=12;fontStyle=0;aspect=fixed;pointerEvents=1;shape=mxgraph.aws4.iot_sitewise_asset_model;labelPosition=right;" parent="1" vertex="1">
          <mxGeometry x="520" y="338" width="78" height="78" as="geometry" />
        </mxCell>
        <mxCell id="EfZzKLjjXhhsiKxFBeHn-3" value="AWS IoT SiteWise" style="sketch=0;points=[[0,0,0],[0.25,0,0],[0.5,0,0],[0.75,0,0],[1,0,0],[0,1,0],[0.25,1,0],[0.5,1,0],[0.75,1,0],[1,1,0],[0,0.25,0],[0,0.5,0],[0,0.75,0],[1,0.25,0],[1,0.5,0],[1,0.75,0]];outlineConnect=0;fontColor=#232F3E;fillColor=light-dark(#7aa116, #61820b);strokeColor=#ffffff;dashed=0;verticalLabelPosition=bottom;verticalAlign=top;align=center;html=1;fontSize=12;fontStyle=0;aspect=fixed;shape=mxgraph.aws4.resourceIcon;resIcon=mxgraph.aws4.iot_sitewise;" parent="1" vertex="1">
          <mxGeometry x="623.5" y="208" width="78" height="78" as="geometry" />
        </mxCell>
        <mxCell id="EfZzKLjjXhhsiKxFBeHn-19" value="exports data" style="edgeStyle=orthogonalEdgeStyle;rounded=0;orthogonalLoop=1;jettySize=auto;html=1;entryX=0;entryY=0.5;entryDx=0;entryDy=0;entryPerimeter=0;dashed=1;" parent="1" source="EfZzKLjjXhhsiKxFBeHn-4" target="EfZzKLjjXhhsiKxFBeHn-18" edge="1">
          <mxGeometry relative="1" as="geometry">
            <Array as="points">
              <mxPoint x="550" y="727" />
            </Array>
          </mxGeometry>
        </mxCell>
        <mxCell id="EfZzKLjjXhhsiKxFBeHn-4" value="asset" style="sketch=0;outlineConnect=0;fontColor=#232F3E;gradientColor=none;fillColor=#7AA116;strokeColor=none;dashed=0;verticalLabelPosition=bottom;verticalAlign=top;align=left;html=1;fontSize=12;fontStyle=0;aspect=fixed;pointerEvents=1;shape=mxgraph.aws4.iot_sitewise_asset;labelPosition=right;" parent="1" vertex="1">
          <mxGeometry x="521" y="468" width="77" height="78" as="geometry" />
        </mxCell>
        <mxCell id="EfZzKLjjXhhsiKxFBeHn-8" value="authentication and authorization" style="endArrow=classic;startArrow=classic;html=1;rounded=0;" parent="1" source="kGXVVBS_KSktztfMy0yq-24" target="kGXVVBS_KSktztfMy0yq-34" edge="1">
          <mxGeometry x="-0.3917" width="50" height="50" relative="1" as="geometry">
            <mxPoint x="-177.5" y="600" as="sourcePoint" />
            <mxPoint x="-127.5" y="550" as="targetPoint" />
            <Array as="points">
              <mxPoint x="-116" y="600" />
            </Array>
            <mxPoint as="offset" />
          </mxGeometry>
        </mxCell>
        <mxCell id="EfZzKLjjXhhsiKxFBeHn-11" value="visualize data" style="edgeStyle=orthogonalEdgeStyle;rounded=0;orthogonalLoop=1;jettySize=auto;html=1;dashed=1;" parent="1" source="EfZzKLjjXhhsiKxFBeHn-9" target="EfZzKLjjXhhsiKxFBeHn-4" edge="1">
          <mxGeometry x="-0.005" relative="1" as="geometry">
            <mxPoint as="offset" />
          </mxGeometry>
        </mxCell>
        <mxCell id="EfZzKLjjXhhsiKxFBeHn-12" value="query data" style="edgeStyle=orthogonalEdgeStyle;rounded=0;orthogonalLoop=1;jettySize=auto;html=1;" parent="1" source="EfZzKLjjXhhsiKxFBeHn-10" target="EfZzKLjjXhhsiKxFBeHn-4" edge="1">
          <mxGeometry x="-0.2218" y="1" relative="1" as="geometry">
            <mxPoint as="offset" />
          </mxGeometry>
        </mxCell>
        <mxCell id="EfZzKLjjXhhsiKxFBeHn-10" value="SiteWise API" style="outlineConnect=0;dashed=0;verticalLabelPosition=bottom;verticalAlign=top;align=center;html=1;shape=mxgraph.aws3.cli;fillColor=#444444;gradientColor=none;" parent="1" vertex="1">
          <mxGeometry x="720" y="575.5" width="72" height="82.5" as="geometry" />
        </mxCell>
        <mxCell id="EfZzKLjjXhhsiKxFBeHn-13" value="SitewWse Grafana Plugin" style="image;aspect=fixed;html=1;points=[];align=center;fontSize=12;image=img/lib/azure2/other/Grafana.svg;imageBorder=none;imageBackground=none;labelBackgroundColor=none;" parent="1" vertex="1">
          <mxGeometry x="978" y="359.59999999999997" width="68" height="52.800000000000004" as="geometry" />
        </mxCell>
        <mxCell id="EfZzKLjjXhhsiKxFBeHn-16" value="Amazon Bedrock" style="sketch=0;points=[[0,0,0],[0.25,0,0],[0.5,0,0],[0.75,0,0],[1,0,0],[0,1,0],[0.25,1,0],[0.5,1,0],[0.75,1,0],[1,1,0],[0,0.25,0],[0,0.5,0],[0,0.75,0],[1,0.25,0],[1,0.5,0],[1,0.75,0]];outlineConnect=0;fontColor=#232F3E;fillColor=#01A88D;strokeColor=#ffffff;dashed=0;verticalLabelPosition=bottom;verticalAlign=top;align=center;html=1;fontSize=12;fontStyle=0;aspect=fixed;shape=mxgraph.aws4.resourceIcon;resIcon=mxgraph.aws4.bedrock;" parent="1" vertex="1">
          <mxGeometry x="973" y="463.5" width="78" height="78" as="geometry" />
        </mxCell>
        <mxCell id="EfZzKLjjXhhsiKxFBeHn-18" value="Amazon S3" style="sketch=0;points=[[0,0,0],[0.25,0,0],[0.5,0,0],[0.75,0,0],[1,0,0],[0,1,0],[0.25,1,0],[0.5,1,0],[0.75,1,0],[1,1,0],[0,0.25,0],[0,0.5,0],[0,0.75,0],[1,0.25,0],[1,0.5,0],[1,0.75,0]];outlineConnect=0;fontColor=#232F3E;fillColor=#7AA116;strokeColor=#ffffff;dashed=0;verticalLabelPosition=bottom;verticalAlign=top;align=center;html=1;fontSize=12;fontStyle=0;aspect=fixed;shape=mxgraph.aws4.resourceIcon;resIcon=mxgraph.aws4.s3;" parent="1" vertex="1">
          <mxGeometry x="975" y="688" width="78" height="78" as="geometry" />
        </mxCell>
        <mxCell id="EfZzKLjjXhhsiKxFBeHn-20" value="Amazon Managed Grafana" style="sketch=0;points=[[0,0,0],[0.25,0,0],[0.5,0,0],[0.75,0,0],[1,0,0],[0,1,0],[0.25,1,0],[0.5,1,0],[0.75,1,0],[1,1,0],[0,0.25,0],[0,0.5,0],[0,0.75,0],[1,0.25,0],[1,0.5,0],[1,0.75,0]];points=[[0,0,0],[0.25,0,0],[0.5,0,0],[0.75,0,0],[1,0,0],[0,1,0],[0.25,1,0],[0.5,1,0],[0.75,1,0],[1,1,0],[0,0.25,0],[0,0.5,0],[0,0.75,0],[1,0.25,0],[1,0.5,0],[1,0.75,0]];outlineConnect=0;fontColor=#232F3E;fillColor=#E7157B;strokeColor=#ffffff;dashed=0;verticalLabelPosition=top;verticalAlign=bottom;align=center;html=1;fontSize=12;fontStyle=0;aspect=fixed;shape=mxgraph.aws4.resourceIcon;resIcon=mxgraph.aws4.managed_service_for_grafana;labelPosition=center;" parent="1" vertex="1">
          <mxGeometry x="971" y="227" width="78" height="78" as="geometry" />
        </mxCell>
        <mxCell id="EfZzKLjjXhhsiKxFBeHn-21" value="visualizes data via" style="edgeStyle=orthogonalEdgeStyle;rounded=0;orthogonalLoop=1;jettySize=auto;html=1;entryX=0.471;entryY=0.053;entryDx=0;entryDy=0;entryPerimeter=0;labelBackgroundColor=light-dark(#fef5ea, #ededed);" parent="1" source="EfZzKLjjXhhsiKxFBeHn-20" target="EfZzKLjjXhhsiKxFBeHn-13" edge="1">
          <mxGeometry relative="1" as="geometry" />
        </mxCell>
        <mxCell id="EfZzKLjjXhhsiKxFBeHn-31" value="" style="rounded=0;whiteSpace=wrap;html=1;fillColor=#ffe6cc;strokeColor=none;opacity=40;" parent="1" vertex="1">
          <mxGeometry x="700" y="448" width="190" height="125.5" as="geometry" />
        </mxCell>
        <mxCell id="EfZzKLjjXhhsiKxFBeHn-9" value="SiteWise Portal" style="sketch=0;outlineConnect=0;fontColor=#232F3E;gradientColor=none;fillColor=light-dark(#79a115, #B17DFF);strokeColor=none;dashed=0;verticalLabelPosition=bottom;verticalAlign=top;align=center;html=1;fontSize=12;fontStyle=0;aspect=fixed;pointerEvents=1;shape=mxgraph.aws4.opensearch_dashboards;" parent="1" vertex="1">
          <mxGeometry x="720" y="477.5" width="78" height="59" as="geometry" />
        </mxCell>
        <mxCell id="EfZzKLjjXhhsiKxFBeHn-15" value="reads data" style="edgeStyle=orthogonalEdgeStyle;rounded=0;orthogonalLoop=1;jettySize=auto;html=1;labelBackgroundColor=light-dark(#fef5ea, #ededed);dashed=1;" parent="1" source="EfZzKLjjXhhsiKxFBeHn-13" edge="1">
          <mxGeometry x="-0.7709" relative="1" as="geometry">
            <mxPoint x="792" y="600" as="targetPoint" />
            <Array as="points">
              <mxPoint x="830" y="386" />
              <mxPoint x="830" y="600" />
            </Array>
            <mxPoint as="offset" />
          </mxGeometry>
        </mxCell>
        <mxCell id="EfZzKLjjXhhsiKxFBeHn-33" value="uses API through&lt;br&gt;Bedrock agntes" style="edgeStyle=orthogonalEdgeStyle;rounded=0;orthogonalLoop=1;jettySize=auto;html=1;labelBackgroundColor=none;dashed=1;" parent="1" source="EfZzKLjjXhhsiKxFBeHn-16" target="EfZzKLjjXhhsiKxFBeHn-10" edge="1">
          <mxGeometry x="-0.6535" relative="1" as="geometry">
            <mxPoint x="800" y="610" as="targetPoint" />
            <Array as="points">
              <mxPoint x="870" y="498" />
              <mxPoint x="870" y="610" />
            </Array>
            <mxPoint as="offset" />
          </mxGeometry>
        </mxCell>
        <mxCell id="EfZzKLjjXhhsiKxFBeHn-35" value="uses&lt;br&gt;API" style="edgeStyle=orthogonalEdgeStyle;rounded=0;orthogonalLoop=1;jettySize=auto;html=1;labelBackgroundColor=none;dashed=1;" parent="1" edge="1">
          <mxGeometry x="-0.5333" relative="1" as="geometry">
            <mxPoint x="972" y="622" as="sourcePoint" />
            <mxPoint x="792" y="622" as="targetPoint" />
            <Array as="points">
              <mxPoint x="930" y="622" />
              <mxPoint x="930" y="622" />
            </Array>
            <mxPoint as="offset" />
          </mxGeometry>
        </mxCell>
        <mxCell id="EfZzKLjjXhhsiKxFBeHn-34" value="Generic application" style="sketch=0;pointerEvents=1;shadow=0;dashed=0;html=1;strokeColor=none;fillColor=#505050;labelPosition=center;verticalLabelPosition=bottom;verticalAlign=top;outlineConnect=0;align=center;shape=mxgraph.office.concepts.application_generic;" parent="1" vertex="1">
          <mxGeometry x="972" y="585" width="80" height="62" as="geometry" />
        </mxCell>
        <mxCell id="EfZzKLjjXhhsiKxFBeHn-39" value="subscribes" style="edgeStyle=orthogonalEdgeStyle;rounded=0;orthogonalLoop=1;jettySize=auto;html=1;startArrow=classic;startFill=1;" parent="1" source="EfZzKLjjXhhsiKxFBeHn-36" target="EfZzKLjjXhhsiKxFBeHn-37" edge="1">
          <mxGeometry x="0.007" relative="1" as="geometry">
            <mxPoint as="offset" />
          </mxGeometry>
        </mxCell>
        <mxCell id="ur1-Jj-tgkY6aSvv_yTd-13" value="forwards messages" style="edgeStyle=orthogonalEdgeStyle;rounded=0;orthogonalLoop=1;jettySize=auto;html=1;dashed=1;" parent="1" source="EfZzKLjjXhhsiKxFBeHn-36" target="ur1-Jj-tgkY6aSvv_yTd-12" edge="1">
          <mxGeometry x="0.7136" relative="1" as="geometry">
            <Array as="points">
              <mxPoint x="323" y="780" />
            </Array>
            <mxPoint x="-1" as="offset" />
          </mxGeometry>
        </mxCell>
        <mxCell id="EfZzKLjjXhhsiKxFBeHn-36" value="IoT rule" style="sketch=0;outlineConnect=0;fontColor=#232F3E;gradientColor=none;fillColor=#7AA116;strokeColor=none;dashed=0;verticalLabelPosition=bottom;verticalAlign=top;align=center;html=1;fontSize=12;fontStyle=0;aspect=fixed;pointerEvents=1;shape=mxgraph.aws4.rule;" parent="1" vertex="1">
          <mxGeometry x="300" y="328" width="46" height="78" as="geometry" />
        </mxCell>
        <mxCell id="EfZzKLjjXhhsiKxFBeHn-37" value="IoT topic" style="sketch=0;outlineConnect=0;fontColor=#232F3E;gradientColor=none;fillColor=#7AA116;strokeColor=none;dashed=0;verticalLabelPosition=bottom;verticalAlign=top;align=center;html=1;fontSize=12;fontStyle=0;aspect=fixed;pointerEvents=1;shape=mxgraph.aws4.topic_2;" parent="1" vertex="1">
          <mxGeometry x="175.5" y="328" width="53" height="78" as="geometry" />
        </mxCell>
        <mxCell id="ur1-Jj-tgkY6aSvv_yTd-2" value="" style="rounded=0;whiteSpace=wrap;html=1;fillColor=#ffe6cc;strokeColor=none;opacity=40;" parent="1" vertex="1">
          <mxGeometry x="-245" y="163.25" width="190" height="125.5" as="geometry" />
        </mxCell>
        <mxCell id="ur1-Jj-tgkY6aSvv_yTd-1" value="AWS IoT Greengrass" style="sketch=0;points=[[0,0,0],[0.25,0,0],[0.5,0,0],[0.75,0,0],[1,0,0],[0,1,0],[0.25,1,0],[0.5,1,0],[0.75,1,0],[1,1,0],[0,0.25,0],[0,0.5,0],[0,0.75,0],[1,0.25,0],[1,0.5,0],[1,0.75,0]];outlineConnect=0;fontColor=#232F3E;fillColor=#7AA116;strokeColor=#ffffff;dashed=0;verticalLabelPosition=top;verticalAlign=bottom;align=center;html=1;fontSize=12;fontStyle=0;aspect=fixed;shape=mxgraph.aws4.resourceIcon;resIcon=mxgraph.aws4.greengrass;labelPosition=center;" parent="1" vertex="1">
          <mxGeometry x="-191.5" y="190" width="78" height="78" as="geometry" />
        </mxCell>
        <mxCell id="ur1-Jj-tgkY6aSvv_yTd-4" value="&lt;div&gt;edge processing&lt;/div&gt;" style="endArrow=classic;startArrow=classic;html=1;rounded=0;exitX=0.5;exitY=0;exitDx=0;exitDy=0;entryX=0.5;entryY=1;entryDx=0;entryDy=0;entryPerimeter=0;dashed=1;" parent="1" source="kGXVVBS_KSktztfMy0yq-41" target="ur1-Jj-tgkY6aSvv_yTd-1" edge="1">
          <mxGeometry x="0.0145" width="50" height="50" relative="1" as="geometry">
            <mxPoint x="230" y="450" as="sourcePoint" />
            <mxPoint x="280" y="400" as="targetPoint" />
            <mxPoint as="offset" />
          </mxGeometry>
        </mxCell>
        <mxCell id="ur1-Jj-tgkY6aSvv_yTd-5" value="Extension Options" style="rounded=0;whiteSpace=wrap;html=1;fillColor=#ffe6cc;strokeColor=none;labelPosition=center;verticalLabelPosition=middle;align=center;verticalAlign=middle;opacity=40;fontStyle=1" parent="1" vertex="1">
          <mxGeometry x="521" y="810" width="190" height="48" as="geometry" />
        </mxCell>
        <mxCell id="ur1-Jj-tgkY6aSvv_yTd-8" value="connectivity" style="endArrow=classic;startArrow=classic;html=1;rounded=0;entryX=1;entryY=0.5;entryDx=0;entryDy=0;entryPerimeter=0;dashed=1;" parent="1" target="ur1-Jj-tgkY6aSvv_yTd-1" edge="1">
          <mxGeometry width="50" height="50" relative="1" as="geometry">
            <mxPoint x="108" y="229" as="sourcePoint" />
            <mxPoint x="39.28999999999999" y="217" as="targetPoint" />
          </mxGeometry>
        </mxCell>
        <mxCell id="ur1-Jj-tgkY6aSvv_yTd-10" value="connectivity" style="endArrow=classic;startArrow=classic;html=1;rounded=0;dashed=1;entryX=0.25;entryY=0;entryDx=0;entryDy=0;" parent="1" target="ur1-Jj-tgkY6aSvv_yTd-15" edge="1">
          <mxGeometry x="0.2734" y="-4" width="50" height="50" relative="1" as="geometry">
            <mxPoint x="-191.5" y="225.29" as="sourcePoint" />
            <mxPoint x="-340" y="225" as="targetPoint" />
            <Array as="points">
              <mxPoint x="-240" y="225" />
            </Array>
            <mxPoint y="1" as="offset" />
          </mxGeometry>
        </mxCell>
        <mxCell id="ur1-Jj-tgkY6aSvv_yTd-14" value="subscribes" style="edgeStyle=orthogonalEdgeStyle;rounded=0;orthogonalLoop=1;jettySize=auto;html=1;dashed=1;" parent="1" source="ur1-Jj-tgkY6aSvv_yTd-12" target="EfZzKLjjXhhsiKxFBeHn-37" edge="1">
          <mxGeometry x="0.5416" relative="1" as="geometry">
            <Array as="points">
              <mxPoint x="-80" y="390" />
            </Array>
            <mxPoint x="1" as="offset" />
          </mxGeometry>
        </mxCell>
        <mxCell id="ur1-Jj-tgkY6aSvv_yTd-12" value="generic application" style="sketch=0;outlineConnect=0;fontColor=#232F3E;gradientColor=none;fillColor=#232F3D;strokeColor=none;dashed=0;verticalLabelPosition=bottom;verticalAlign=top;align=center;html=1;fontSize=12;fontStyle=0;aspect=fixed;pointerEvents=1;shape=mxgraph.aws4.generic_application;" parent="1" vertex="1">
          <mxGeometry x="-233.5" y="708.25" width="78" height="78" as="geometry" />
        </mxCell>
      </root>
    </mxGraphModel>
  </diagram>
  <diagram name="Copy of Page-1" id="blWVVCpTMHKWCKm_LC0x">
    <mxGraphModel dx="2084" dy="1072" grid="1" gridSize="10" guides="1" tooltips="1" connect="1" arrows="1" fold="1" page="1" pageScale="1" pageWidth="850" pageHeight="1100" math="0" shadow="0">
      <root>
        <mxCell id="xDjXt-QQ54AgnvHL98te-0" />
        <mxCell id="xDjXt-QQ54AgnvHL98te-1" parent="xDjXt-QQ54AgnvHL98te-0" />
        <mxCell id="xDjXt-QQ54AgnvHL98te-3" value="AWS Cloud" style="sketch=0;outlineConnect=0;gradientColor=none;html=1;whiteSpace=wrap;fontSize=12;fontStyle=0;shape=mxgraph.aws4.group;grIcon=mxgraph.aws4.group_aws_cloud;strokeColor=#AAB7B8;fillColor=none;verticalAlign=top;align=left;spacingLeft=30;fontColor=#AAB7B8;dashed=0;" vertex="1" parent="xDjXt-QQ54AgnvHL98te-1">
          <mxGeometry x="110" y="140" width="810" height="730" as="geometry" />
        </mxCell>
        <mxCell id="xDjXt-QQ54AgnvHL98te-5" value="" style="rounded=0;whiteSpace=wrap;html=1;" vertex="1" parent="xDjXt-QQ54AgnvHL98te-1">
          <mxGeometry x="130" y="190" width="260" height="610" as="geometry" />
        </mxCell>
        <mxCell id="xDjXt-QQ54AgnvHL98te-6" value="Feld" style="sketch=0;outlineConnect=0;gradientColor=none;html=1;whiteSpace=wrap;fontSize=12;fontStyle=0;shape=mxgraph.aws4.group;grIcon=mxgraph.aws4.group_on_premise;strokeColor=#AAB7B8;fillColor=none;verticalAlign=top;align=left;spacingLeft=30;fontColor=#AAB7B8;dashed=0;" vertex="1" parent="xDjXt-QQ54AgnvHL98te-1">
          <mxGeometry x="-425" y="140" width="410" height="320" as="geometry" />
        </mxCell>
        <mxCell id="xDjXt-QQ54AgnvHL98te-7" value="" style="rounded=0;whiteSpace=wrap;html=1;" vertex="1" parent="xDjXt-QQ54AgnvHL98te-1">
          <mxGeometry x="475" y="190" width="375" height="498" as="geometry" />
        </mxCell>
        <mxCell id="xDjXt-QQ54AgnvHL98te-8" value="sendet&lt;br&gt;Daten" style="edgeStyle=orthogonalEdgeStyle;rounded=0;orthogonalLoop=1;jettySize=auto;html=1;" edge="1" parent="xDjXt-QQ54AgnvHL98te-1" source="xDjXt-QQ54AgnvHL98te-44" target="xDjXt-QQ54AgnvHL98te-26">
          <mxGeometry relative="1" as="geometry">
            <mxPoint x="320" y="247" as="targetPoint" />
            <Array as="points">
              <mxPoint x="430" y="380" />
              <mxPoint x="430" y="518" />
            </Array>
          </mxGeometry>
        </mxCell>
        <mxCell id="xDjXt-QQ54AgnvHL98te-9" value="AWS IoT Core" style="sketch=0;points=[[0,0,0],[0.25,0,0],[0.5,0,0],[0.75,0,0],[1,0,0],[0,1,0],[0.25,1,0],[0.5,1,0],[0.75,1,0],[1,1,0],[0,0.25,0],[0,0.5,0],[0,0.75,0],[1,0.25,0],[1,0.5,0],[1,0.75,0]];outlineConnect=0;fontColor=#232F3E;fillColor=#7AA116;strokeColor=#ffffff;dashed=0;verticalLabelPosition=bottom;verticalAlign=top;align=center;html=1;fontSize=12;fontStyle=0;aspect=fixed;shape=mxgraph.aws4.resourceIcon;resIcon=mxgraph.aws4.iot_core;" vertex="1" parent="xDjXt-QQ54AgnvHL98te-1">
          <mxGeometry x="222" y="208" width="78" height="78" as="geometry" />
        </mxCell>
        <mxCell id="xDjXt-QQ54AgnvHL98te-10" value="Zertifikat" style="sketch=0;outlineConnect=0;fontColor=#232F3E;gradientColor=none;fillColor=#7AA116;strokeColor=none;dashed=0;verticalLabelPosition=middle;verticalAlign=middle;align=left;html=1;fontSize=12;fontStyle=0;aspect=fixed;pointerEvents=1;shape=mxgraph.aws4.certificate_manager;labelPosition=right;" vertex="1" parent="xDjXt-QQ54AgnvHL98te-1">
          <mxGeometry x="172.5" y="560" width="59" height="78" as="geometry" />
        </mxCell>
        <mxCell id="xDjXt-QQ54AgnvHL98te-11" value="" style="sketch=0;outlineConnect=0;fontColor=#232F3E;gradientColor=none;fillColor=#7AA116;strokeColor=none;dashed=0;verticalLabelPosition=bottom;verticalAlign=top;align=center;html=1;fontSize=12;fontStyle=0;aspect=fixed;pointerEvents=1;shape=mxgraph.aws4.mqtt_protocol;" vertex="1" parent="xDjXt-QQ54AgnvHL98te-1">
          <mxGeometry x="20" y="319.6" width="40" height="40" as="geometry" />
        </mxCell>
        <mxCell id="xDjXt-QQ54AgnvHL98te-12" value="repräsentiert IO-Link Master" style="edgeStyle=orthogonalEdgeStyle;rounded=0;orthogonalLoop=1;jettySize=auto;html=1;" edge="1" parent="xDjXt-QQ54AgnvHL98te-1">
          <mxGeometry x="-0.2933" relative="1" as="geometry">
            <mxPoint x="-152" y="400" as="targetPoint" />
            <Array as="points">
              <mxPoint x="30" y="481" />
              <mxPoint x="30" y="480" />
              <mxPoint x="-152" y="480" />
            </Array>
            <mxPoint x="163" y="481" as="sourcePoint" />
            <mxPoint as="offset" />
          </mxGeometry>
        </mxCell>
        <mxCell id="xDjXt-QQ54AgnvHL98te-13" value="verfügt über" style="edgeStyle=orthogonalEdgeStyle;rounded=0;orthogonalLoop=1;jettySize=auto;html=1;" edge="1" parent="xDjXt-QQ54AgnvHL98te-1" source="xDjXt-QQ54AgnvHL98te-14" target="xDjXt-QQ54AgnvHL98te-10">
          <mxGeometry relative="1" as="geometry" />
        </mxCell>
        <mxCell id="xDjXt-QQ54AgnvHL98te-14" value="Objekt" style="sketch=0;outlineConnect=0;fontColor=#232F3E;gradientColor=none;fillColor=#7AA116;strokeColor=none;dashed=0;verticalLabelPosition=middle;verticalAlign=middle;align=left;html=1;fontSize=12;fontStyle=0;aspect=fixed;pointerEvents=1;shape=mxgraph.aws4.generic;labelPosition=right;" vertex="1" parent="xDjXt-QQ54AgnvHL98te-1">
          <mxGeometry x="163" y="440" width="78" height="78" as="geometry" />
        </mxCell>
        <mxCell id="xDjXt-QQ54AgnvHL98te-15" value="stellt Berechtigung bereit" style="edgeStyle=orthogonalEdgeStyle;rounded=0;orthogonalLoop=1;jettySize=auto;html=1;" edge="1" parent="xDjXt-QQ54AgnvHL98te-1" source="xDjXt-QQ54AgnvHL98te-16" target="xDjXt-QQ54AgnvHL98te-10">
          <mxGeometry relative="1" as="geometry" />
        </mxCell>
        <mxCell id="xDjXt-QQ54AgnvHL98te-16" value="IoT Richtlinie" style="sketch=0;outlineConnect=0;fontColor=#232F3E;gradientColor=none;fillColor=#7AA116;strokeColor=none;dashed=0;verticalLabelPosition=middle;verticalAlign=middle;align=left;html=1;fontSize=12;fontStyle=0;aspect=fixed;pointerEvents=1;shape=mxgraph.aws4.policy;labelPosition=right;" vertex="1" parent="xDjXt-QQ54AgnvHL98te-1">
          <mxGeometry x="163" y="690" width="78" height="67" as="geometry" />
        </mxCell>
        <mxCell id="xDjXt-QQ54AgnvHL98te-17" value="liest Daten" style="edgeStyle=orthogonalEdgeStyle;rounded=0;orthogonalLoop=1;jettySize=auto;html=1;" edge="1" parent="xDjXt-QQ54AgnvHL98te-1" source="xDjXt-QQ54AgnvHL98te-19">
          <mxGeometry relative="1" as="geometry">
            <mxPoint x="-322" y="367" as="targetPoint" />
          </mxGeometry>
        </mxCell>
        <mxCell id="xDjXt-QQ54AgnvHL98te-18" value="sendet Daten" style="edgeStyle=orthogonalEdgeStyle;rounded=0;orthogonalLoop=1;jettySize=auto;html=1;" edge="1" parent="xDjXt-QQ54AgnvHL98te-1" source="xDjXt-QQ54AgnvHL98te-19" target="xDjXt-QQ54AgnvHL98te-45">
          <mxGeometry relative="1" as="geometry" />
        </mxCell>
        <mxCell id="xDjXt-QQ54AgnvHL98te-19" value="IO-Link Master" style="rounded=1;whiteSpace=wrap;html=1;align=left;verticalAlign=top;" vertex="1" parent="xDjXt-QQ54AgnvHL98te-1">
          <mxGeometry x="-212.5" y="337" width="120" height="60" as="geometry" />
        </mxCell>
        <mxCell id="xDjXt-QQ54AgnvHL98te-20" value="" style="sketch=0;outlineConnect=0;fontColor=#232F3E;gradientColor=none;fillColor=#7AA116;strokeColor=none;dashed=0;verticalLabelPosition=bottom;verticalAlign=top;align=center;html=1;fontSize=12;fontStyle=0;aspect=fixed;pointerEvents=1;shape=mxgraph.aws4.certificate_manager;" vertex="1" parent="xDjXt-QQ54AgnvHL98te-1">
          <mxGeometry x="-130" y="349.5" width="28.74" height="38" as="geometry" />
        </mxCell>
        <mxCell id="xDjXt-QQ54AgnvHL98te-21" value="IO-Link Sensor" style="sketch=0;outlineConnect=0;fontColor=#232F3E;gradientColor=none;fillColor=#7AA116;strokeColor=none;dashed=0;verticalLabelPosition=bottom;verticalAlign=top;align=center;html=1;fontSize=12;fontStyle=0;aspect=fixed;pointerEvents=1;shape=mxgraph.aws4.sensor;" vertex="1" parent="xDjXt-QQ54AgnvHL98te-1">
          <mxGeometry x="-390" y="321" width="70" height="78" as="geometry" />
        </mxCell>
        <mxCell id="xDjXt-QQ54AgnvHL98te-22" value="wird instanziiert zu" style="edgeStyle=orthogonalEdgeStyle;rounded=0;orthogonalLoop=1;jettySize=auto;html=1;" edge="1" parent="xDjXt-QQ54AgnvHL98te-1" source="xDjXt-QQ54AgnvHL98te-23" target="xDjXt-QQ54AgnvHL98te-26">
          <mxGeometry relative="1" as="geometry" />
        </mxCell>
        <mxCell id="xDjXt-QQ54AgnvHL98te-23" value="Model" style="sketch=0;outlineConnect=0;fontColor=#232F3E;gradientColor=none;fillColor=#7AA116;strokeColor=none;dashed=0;verticalLabelPosition=middle;verticalAlign=middle;align=left;html=1;fontSize=12;fontStyle=0;aspect=fixed;pointerEvents=1;shape=mxgraph.aws4.iot_sitewise_asset_model;labelPosition=right;" vertex="1" parent="xDjXt-QQ54AgnvHL98te-1">
          <mxGeometry x="520" y="338" width="78" height="78" as="geometry" />
        </mxCell>
        <mxCell id="xDjXt-QQ54AgnvHL98te-24" value="AWS IoT SiteWise" style="sketch=0;points=[[0,0,0],[0.25,0,0],[0.5,0,0],[0.75,0,0],[1,0,0],[0,1,0],[0.25,1,0],[0.5,1,0],[0.75,1,0],[1,1,0],[0,0.25,0],[0,0.5,0],[0,0.75,0],[1,0.25,0],[1,0.5,0],[1,0.75,0]];outlineConnect=0;fontColor=#232F3E;fillColor=light-dark(#7aa116, #61820b);strokeColor=#ffffff;dashed=0;verticalLabelPosition=bottom;verticalAlign=top;align=center;html=1;fontSize=12;fontStyle=0;aspect=fixed;shape=mxgraph.aws4.resourceIcon;resIcon=mxgraph.aws4.iot_sitewise;" vertex="1" parent="xDjXt-QQ54AgnvHL98te-1">
          <mxGeometry x="623.5" y="208" width="78" height="78" as="geometry" />
        </mxCell>
        <mxCell id="xDjXt-QQ54AgnvHL98te-26" value="Komponente" style="sketch=0;outlineConnect=0;fontColor=#232F3E;gradientColor=none;fillColor=#7AA116;strokeColor=none;dashed=0;verticalLabelPosition=bottom;verticalAlign=top;align=left;html=1;fontSize=12;fontStyle=0;aspect=fixed;pointerEvents=1;shape=mxgraph.aws4.iot_sitewise_asset;labelPosition=right;" vertex="1" parent="xDjXt-QQ54AgnvHL98te-1">
          <mxGeometry x="521" y="468" width="77" height="78" as="geometry" />
        </mxCell>
        <mxCell id="xDjXt-QQ54AgnvHL98te-27" value="Authentifizierung und Autorisierung" style="endArrow=classic;startArrow=classic;html=1;rounded=0;" edge="1" parent="xDjXt-QQ54AgnvHL98te-1" source="xDjXt-QQ54AgnvHL98te-10" target="xDjXt-QQ54AgnvHL98te-20">
          <mxGeometry x="-0.3917" width="50" height="50" relative="1" as="geometry">
            <mxPoint x="-177.5" y="600" as="sourcePoint" />
            <mxPoint x="-127.5" y="550" as="targetPoint" />
            <Array as="points">
              <mxPoint x="-116" y="600" />
            </Array>
            <mxPoint as="offset" />
          </mxGeometry>
        </mxCell>
        <mxCell id="xDjXt-QQ54AgnvHL98te-29" value="abfragen von &lt;br&gt;Komponenten und Daten" style="edgeStyle=orthogonalEdgeStyle;rounded=0;orthogonalLoop=1;jettySize=auto;html=1;" edge="1" parent="xDjXt-QQ54AgnvHL98te-1" source="xDjXt-QQ54AgnvHL98te-30" target="xDjXt-QQ54AgnvHL98te-26">
          <mxGeometry x="-0.2218" y="1" relative="1" as="geometry">
            <mxPoint as="offset" />
          </mxGeometry>
        </mxCell>
        <mxCell id="xDjXt-QQ54AgnvHL98te-30" value="SiteWise API" style="outlineConnect=0;dashed=0;verticalLabelPosition=bottom;verticalAlign=top;align=center;html=1;shape=mxgraph.aws3.cli;fillColor=#444444;gradientColor=none;" vertex="1" parent="xDjXt-QQ54AgnvHL98te-1">
          <mxGeometry x="720" y="575.5" width="72" height="82.5" as="geometry" />
        </mxCell>
        <mxCell id="xDjXt-QQ54AgnvHL98te-42" value="abonniert" style="edgeStyle=orthogonalEdgeStyle;rounded=0;orthogonalLoop=1;jettySize=auto;html=1;startArrow=classic;startFill=1;" edge="1" parent="xDjXt-QQ54AgnvHL98te-1" source="xDjXt-QQ54AgnvHL98te-44" target="xDjXt-QQ54AgnvHL98te-45">
          <mxGeometry relative="1" as="geometry" />
        </mxCell>
        <mxCell id="xDjXt-QQ54AgnvHL98te-44" value="IoT Regel" style="sketch=0;outlineConnect=0;fontColor=#232F3E;gradientColor=none;fillColor=#7AA116;strokeColor=none;dashed=0;verticalLabelPosition=bottom;verticalAlign=top;align=center;html=1;fontSize=12;fontStyle=0;aspect=fixed;pointerEvents=1;shape=mxgraph.aws4.rule;" vertex="1" parent="xDjXt-QQ54AgnvHL98te-1">
          <mxGeometry x="300" y="328" width="46" height="78" as="geometry" />
        </mxCell>
        <mxCell id="xDjXt-QQ54AgnvHL98te-45" value="IoT Thema" style="sketch=0;outlineConnect=0;fontColor=#232F3E;gradientColor=none;fillColor=#7AA116;strokeColor=none;dashed=0;verticalLabelPosition=bottom;verticalAlign=top;align=center;html=1;fontSize=12;fontStyle=0;aspect=fixed;pointerEvents=1;shape=mxgraph.aws4.topic_2;" vertex="1" parent="xDjXt-QQ54AgnvHL98te-1">
          <mxGeometry x="175.5" y="328" width="53" height="78" as="geometry" />
        </mxCell>
      </root>
    </mxGraphModel>
  </diagram>
</mxfile>
